# xmcd
# 
# Track frame offsets:
#     150
#     19625
#     43831
#     64990
#     85350
#     113841
#     121397
# 
# Disc length: 1921
# 
# Revision: 0
# Processed by: cddbd v1.5.2PL0 Copyright (c) Steve Scherf et al.
# Submitted via: fre:ac v1.0.17
# 
DISCID=5b077f07
DTITLE=Band Of Orcs - WarChiefs Of The Apocalypse
DYEAR=2007
DGENRE=Heavy Metal
TTITLE0=I, Gogog
TTITLE1=Warchiefs Of The Apocalypse
TTITLE2=Bring Out Your Dead
TTITLE3=Procreation (Of The Wicked)
TTITLE4=Disassembly Line (Instrumental)
TTITLE5=Descent/
TTITLE6=Into The Maelstrom
EXTD=
EXTT0=
EXTT1=
EXTT2=
EXTT3=
EXTT4=
EXTT5=
EXTT6=
PLAYORDER=
